<?xml version="1.0" encoding="UTF-8" standalone="no"?>
<!-- This is a Stata 15.1 generated SVG file (http://www.stata.com) -->

<svg version="1.1" width="600px" height="436px" viewBox="0 0 3960 2880" xmlns="http://www.w3.org/2000/svg" xmlns:xlink="http://www.w3.org/1999/xlink">
	<desc>Stata Graph - Graph</desc>
	<rect x="0" y="0" width="3960" height="2880" style="fill:#EAF2F3;stroke:none"/>
	<rect x="0.00" y="0.00" width="3959.88" height="2880.00" style="fill:#EAF2F3"/>
	<rect x="2.88" y="2.88" width="3954.12" height="2874.24" style="fill:none;stroke:#EAF2F3;stroke-width:5.76"/>
	<rect x="390.80" y="100.86" width="3468.22" height="2388.33" style="fill:#FFFFFF"/>
	<rect x="393.68" y="103.74" width="3462.46" height="2382.57" style="fill:none;stroke:#FFFFFF;stroke-width:5.76"/>
	<line x1="390.80" y1="2489.19" x2="3859.02" y2="2489.19" style="stroke:#EAF2F3;stroke-width:8.64"/>
	<line x1="390.80" y1="1714.24" x2="3859.02" y2="1714.24" style="stroke:#EAF2F3;stroke-width:8.64"/>
	<line x1="390.80" y1="939.17" x2="3859.02" y2="939.17" style="stroke:#EAF2F3;stroke-width:8.64"/>
	<rect x="482.01" y="644.02" width="55.56" height="1845.17" style="fill:#CAC27E"/>
	<rect x="486.33" y="648.33" width="46.92" height="1836.53" style="fill:none;stroke:#D7D29E;stroke-width:8.64"/>
	<rect x="537.57" y="2488.94" width="55.69" height="0.25" style="fill:#CAC27E"/>
	<rect x="541.89" y="2493.26" width="47.05" height="-8.39" style="fill:none;stroke:#D7D29E;stroke-width:8.64"/>
	<rect x="593.26" y="2489.06" width="55.69" height="0.12" style="fill:#CAC27E"/>
	<rect x="597.58" y="2493.38" width="47.05" height="-8.52" style="fill:none;stroke:#D7D29E;stroke-width:8.64"/>
	<rect x="648.95" y="2489.19" width="55.69" height="0.00" style="fill:#CAC27E"/>
	<rect x="653.26" y="2493.51" width="47.05" height="-8.64" style="fill:none;stroke:#D7D29E;stroke-width:8.64"/>
	<rect x="704.63" y="2489.19" width="55.56" height="0.00" style="fill:#CAC27E"/>
	<rect x="708.95" y="2493.51" width="46.92" height="-8.64" style="fill:none;stroke:#D7D29E;stroke-width:8.64"/>
	<rect x="760.20" y="2489.19" width="55.69" height="0.00" style="fill:#CAC27E"/>
	<rect x="764.52" y="2493.51" width="47.05" height="-8.64" style="fill:none;stroke:#D7D29E;stroke-width:8.64"/>
	<rect x="815.88" y="2489.19" width="55.69" height="0.00" style="fill:#CAC27E"/>
	<rect x="820.20" y="2493.51" width="47.05" height="-8.64" style="fill:none;stroke:#D7D29E;stroke-width:8.64"/>
	<rect x="871.57" y="2489.19" width="55.69" height="0.00" style="fill:#CAC27E"/>
	<rect x="875.89" y="2493.51" width="47.05" height="-8.64" style="fill:none;stroke:#D7D29E;stroke-width:8.64"/>
	<rect x="927.26" y="2489.19" width="55.56" height="0.00" style="fill:#CAC27E"/>
	<rect x="931.58" y="2493.51" width="46.92" height="-8.64" style="fill:none;stroke:#D7D29E;stroke-width:8.64"/>
	<rect x="1038.51" y="2489.19" width="55.69" height="0.00" style="fill:#CAC27E"/>
	<rect x="1042.83" y="2493.51" width="47.05" height="-8.64" style="fill:none;stroke:#D7D29E;stroke-width:8.64"/>
	<rect x="1261.14" y="2489.19" width="55.69" height="0.00" style="fill:#CAC27E"/>
	<rect x="1265.46" y="2493.51" width="47.05" height="-8.64" style="fill:none;stroke:#D7D29E;stroke-width:8.64"/>
	<rect x="1428.08" y="2489.19" width="55.69" height="0.00" style="fill:#CAC27E"/>
	<rect x="1432.39" y="2493.51" width="47.05" height="-8.64" style="fill:none;stroke:#D7D29E;stroke-width:8.64"/>
	<rect x="1539.45" y="2489.19" width="55.56" height="0.00" style="fill:#CAC27E"/>
	<rect x="1543.77" y="2493.51" width="46.92" height="-8.64" style="fill:none;stroke:#D7D29E;stroke-width:8.64"/>
	<rect x="1873.33" y="2489.19" width="55.69" height="0.00" style="fill:#CAC27E"/>
	<rect x="1877.65" y="2493.51" width="47.05" height="-8.64" style="fill:none;stroke:#D7D29E;stroke-width:8.64"/>
	<rect x="3542.96" y="2489.19" width="55.69" height="0.00" style="fill:#CAC27E"/>
	<rect x="3547.28" y="2493.51" width="47.05" height="-8.64" style="fill:none;stroke:#D7D29E;stroke-width:8.64"/>
	<line x1="390.80" y1="2489.19" x2="390.80" y2="100.86" style="stroke:#000000;stroke-width:5.76"/>
	<line x1="390.80" y1="2489.19" x2="350.83" y2="2489.19" style="stroke:#000000;stroke-width:5.76"/>
	<text x="300.72" y="2489.19" style="font-family:'Helvetica';font-size:99.99px;fill:#000000" transform="rotate(-90 300.72,2489.19)" text-anchor="middle">0</text>
	<line x1="390.80" y1="1714.24" x2="350.83" y2="1714.24" style="stroke:#000000;stroke-width:5.76"/>
	<text x="300.72" y="1714.24" style="font-family:'Helvetica';font-size:99.99px;fill:#000000" transform="rotate(-90 300.72,1714.24)" text-anchor="middle">5.0e-07</text>
	<line x1="390.80" y1="939.17" x2="350.83" y2="939.17" style="stroke:#000000;stroke-width:5.76"/>
	<text x="300.72" y="939.17" style="font-family:'Helvetica';font-size:99.99px;fill:#000000" transform="rotate(-90 300.72,939.17)" text-anchor="middle">1.0e-06</text>
	<line x1="390.80" y1="164.22" x2="350.83" y2="164.22" style="stroke:#000000;stroke-width:5.76"/>
	<text x="300.72" y="164.22" style="font-family:'Helvetica';font-size:99.99px;fill:#000000" transform="rotate(-90 300.72,164.22)" text-anchor="middle">1.5e-06</text>
	<text x="190.71" y="1294.96" style="font-family:'Helvetica';font-size:99.99px;fill:#000000" transform="rotate(-90 190.71,1294.96)" text-anchor="middle">Density</text>
	<line x1="390.80" y1="2489.19" x2="3859.02" y2="2489.19" style="stroke:#000000;stroke-width:5.76"/>
	<line x1="482.01" y1="2489.19" x2="482.01" y2="2529.16" style="stroke:#000000;stroke-width:5.76"/>
	<text x="482.01" y="2619.14" style="font-family:'Helvetica';font-size:99.99px;fill:#000000" text-anchor="middle">0</text>
	<line x1="1144.69" y1="2489.19" x2="1144.69" y2="2529.16" style="stroke:#000000;stroke-width:5.76"/>
	<text x="1144.69" y="2619.14" style="font-family:'Helvetica';font-size:99.99px;fill:#000000" text-anchor="middle">1.00e+07</text>
	<line x1="1807.49" y1="2489.19" x2="1807.49" y2="2529.16" style="stroke:#000000;stroke-width:5.76"/>
	<text x="1807.49" y="2619.14" style="font-family:'Helvetica';font-size:99.99px;fill:#000000" text-anchor="middle">2.00e+07</text>
	<line x1="2470.17" y1="2489.19" x2="2470.17" y2="2529.16" style="stroke:#000000;stroke-width:5.76"/>
	<text x="2470.17" y="2619.14" style="font-family:'Helvetica';font-size:99.99px;fill:#000000" text-anchor="middle">3.00e+07</text>
	<line x1="3132.98" y1="2489.19" x2="3132.98" y2="2529.16" style="stroke:#000000;stroke-width:5.76"/>
	<text x="3132.98" y="2619.14" style="font-family:'Helvetica';font-size:99.99px;fill:#000000" text-anchor="middle">4.00e+07</text>
	<line x1="3795.66" y1="2489.19" x2="3795.66" y2="2529.16" style="stroke:#000000;stroke-width:5.76"/>
	<text x="3795.66" y="2619.14" style="font-family:'Helvetica';font-size:99.99px;fill:#000000" text-anchor="middle">5.00e+07</text>
	<text x="2124.91" y="2729.16" style="font-family:'Helvetica';font-size:99.99px;fill:#000000" text-anchor="middle">(sum) totalmedicarepaymentamount</text>
</svg>
